<svg version="1.1" id="Layer_1" xmlns="http://www.w3.org/2000/svg" xmlns:xlink="http://www.w3.org/1999/xlink" x="0px" y="0px"
	 viewBox="0 0 48 48" style="enable-background:new 0 0 48 48;" xml:space="preserve" fill="currentColor">
<path d="M28,4H11c-0.8,0-1.5,0.3-2.1,0.9C8.3,5.5,8,6.2,8,7v34c0,0.8,0.3,1.5,0.9,2.1C9.5,43.7,10.2,44,11,44h26
	c0.8,0,1.5-0.3,2.1-0.9c0.6-0.6,0.9-1.3,0.9-2.1V16L28,4z M37,41H11V7h15.7L37,17.3V41z"/>
<g>
	<g>
		<path class="st0" d="M28.4,6.5H10.2v35.4h27.8l0.3-25.7L28.4,6.5z M21.8,38.4c-0.7,0.4-1.5,0.6-2.5,0.6c-1.4,0-2.6-0.5-3.6-1.4
			c-1-1-1.5-2.2-1.5-3.6c0-1.4,0.5-2.6,1.5-3.6c1-1,2.2-1.5,3.7-1.5c1.7,0,3.1,0.7,4.1,2.1l-2,1.5c-0.6-0.8-1.3-1.1-2.2-1.1
			c-0.7,0-1.2,0.3-1.7,0.8c-0.4,0.5-0.7,1.1-0.7,1.9c0,0.7,0.2,1.4,0.7,1.9c0.4,0.5,1,0.7,1.7,0.7c0.5,0,0.9-0.1,1.2-0.3
			c0.3-0.2,0.7-0.5,1-0.9l2,1.5C23.1,37.4,22.5,38,21.8,38.4z M30.3,38.8h-2.5l-4-9.9h3l2.2,6.2l2.2-6.2h3L30.3,38.8z"/>
	</g>
</g>
</svg>
